<?xml version="1.0" encoding="UTF-8" standalone="no"?>
<svg
   xmlns:dc="http://purl.org/dc/elements/1.1/"
   xmlns:cc="http://creativecommons.org/ns#"
   xmlns:rdf="http://www.w3.org/1999/02/22-rdf-syntax-ns#"
   xmlns:svg="http://www.w3.org/2000/svg"
   xmlns="http://www.w3.org/2000/svg"
   xmlns:sodipodi="http://sodipodi.sourceforge.net/DTD/sodipodi-0.dtd"
   xmlns:inkscape="http://www.inkscape.org/namespaces/inkscape"
   inkscape:version="1.0 (4035a4f, 2020-05-01)"
   sodipodi:docname="banner-bg.svg"
   id="svg24"
   version="1.1"
   viewBox="0 0 1920.183 1075.636"
   height="1075.636"
   width="1920.183">
  <metadata
     id="metadata28">
    <rdf:RDF>
      <cc:Work
         rdf:about="">
        <dc:format>image/svg+xml</dc:format>
        <dc:type
           rdf:resource="http://purl.org/dc/dcmitype/StillImage" />
      </cc:Work>
    </rdf:RDF>
  </metadata>
  <sodipodi:namedview
     inkscape:current-layer="Group_112"
     inkscape:window-maximized="0"
     inkscape:window-y="23"
     inkscape:window-x="0"
     inkscape:cy="385.17121"
     inkscape:cx="1258.8634"
     inkscape:zoom="0.25698129"
     showgrid="false"
     id="namedview26"
     inkscape:window-height="662"
     inkscape:window-width="1158"
     inkscape:pageshadow="2"
     inkscape:pageopacity="0"
     guidetolerance="10"
     gridtolerance="10"
     objecttolerance="10"
     borderopacity="1"
     bordercolor="#666666"
     pagecolor="#ffffff" />
  <defs
     id="defs17">
    <linearGradient
       gradientUnits="objectBoundingBox"
       y2="1"
       x2="0.5"
       x1="0.5"
       id="linear-gradient">
      <stop
         id="stop10"
         stop-color="#361cc1"
         offset="0" />
      <stop
         id="stop12"
         stop-color="#2e82ef"
         offset="1" />
    </linearGradient>
    <clipPath
       id="clip-path">
      <path
         fill="url(#linear-gradient)"
         transform="translate(533 329)"
         d="M-533.031,278.516s95.269,204.193,401.21,161.147,419.656-32.1,544.188,96.892,343.977,107.54,572.909,67.066,360.19,68.158,401.79,142.968c.041-2.4-.074-1075.621-.074-1075.621l-1920,.011Z"
         data-name="Path 199"
         id="Path_199" />
    </clipPath>
  </defs>
  <g
     transform="translate(0.089 0.042)"
     data-name="Group 112"
     id="Group_112">
    <path
       fill="url(#linear-gradient)"
       opacity="0.11"
       transform="translate(533 329)"
       d="M-533.089,278.364s100.43,239.944,401.206,191.477,442.068,9.577,537.63,114.941,352.091,94.329,580.987,52.374S1349.9,678.95,1387.094,746.594c.016.016-.373-1075.609-.373-1075.609l-1919.766-.027Z"
       data-name="Path 195"
       id="Path_195" />
    <path
       style="fill:#000080"
       fill="url(#linear-gradient)"
       transform="translate(533 329)"
       d="M-533.031,278.516s95.269,204.193,401.21,161.147,419.656-32.1,544.188,96.892,343.977,107.54,572.909,67.066,360.19,68.158,401.79,142.968c.041-2.4-.074-1075.621-.074-1075.621l-1920,.011Z"
       data-name="Path 194"
       id="Path_194" />
    <g
       clip-path="url(#clip-path)"
       data-name="Mask Group 6"
       id="Mask_Group_6">
      <path
         opacity="0.14"
         stroke-width="128"
         stroke="#361cc1"
         fill="none"
         transform="translate(522 366.416)"
         d="M-496.368,321.285S-322.126-70.761,321.065,66.253s869.415,77.467,1056.161-463.982"
         data-name="Path 4"
         id="Path_4" />
    </g>
  </g>
</svg>
